<svg width="44" height="44" viewBox="0 0 44 44" fill="none" xmlns="http://www.w3.org/2000/svg">
<circle cx="22" cy="22" r="22" fill="#13458D"/>
<path d="M12.136 29.336H21.232V30.752H12.136V29.336ZM11.224 26.048H20.968V27.416H11.224V26.048ZM11.32 29.336H12.832V31.04C12.832 32.552 12.604 34.808 11.488 36.224C11.248 35.936 10.6 35.384 10.288 35.192C11.236 33.968 11.32 32.24 11.32 31.004V29.336ZM12.94 27.872L14.212 27.332C14.584 27.812 15.04 28.496 15.232 28.964L13.888 29.564C13.732 29.108 13.312 28.388 12.94 27.872ZM18.052 27.428L19.672 27.944C19.18 28.64 18.676 29.372 18.292 29.852L17.152 29.396C17.476 28.844 17.86 28.028 18.052 27.428ZM14.824 25.112L16.312 24.764C16.648 25.172 16.984 25.76 17.128 26.168L15.568 26.6C15.46 26.192 15.136 25.568 14.824 25.112ZM25.8667 26.66V28.28H30.0907V26.66H25.8667ZM24.4747 25.292H31.5667V29.648H24.4747V25.292ZM22.8307 30.656H27.4147V36.008H25.9747V32.024H24.1867V36.08H22.8307V30.656ZM28.4347 30.656H33.1867V36.02H31.7347V32.024H29.8147V36.08H28.4347V30.656ZM23.4307 34.1H26.5747V35.48H23.4307V34.1ZM29.0947 34.1H32.4547V35.48H29.0947V34.1Z" fill="white"/>
<g clip-path="url(#clip0_93_1925)">
<path d="M28.6668 8.66683L22.0002 5.3335L15.3335 8.66683V15.3335L22.0002 18.6668L28.6668 15.3335V8.66683Z" stroke="white" stroke-width="1.33333" stroke-linejoin="round"/>
<path d="M15.3335 8.6665L22.0002 11.9998" stroke="white" stroke-width="1.33333" stroke-linecap="round" stroke-linejoin="round"/>
<path d="M22 18.6667V12" stroke="white" stroke-width="1.33333" stroke-linecap="round" stroke-linejoin="round"/>
<path d="M28.6667 8.6665L22 11.9998" stroke="white" stroke-width="1.33333" stroke-linecap="round" stroke-linejoin="round"/>
<path d="M25.3332 7L18.6665 10.3333" stroke="white" stroke-width="1.33333" stroke-linecap="round" stroke-linejoin="round"/>
</g>
<defs>
<clipPath id="clip0_93_1925">
<rect width="16" height="16" fill="white" transform="translate(14 4)"/>
</clipPath>
</defs>
</svg>
