<svg width="44" height="44" viewBox="0 0 44 44" fill="none" xmlns="http://www.w3.org/2000/svg">
<circle cx="22" cy="22" r="22" fill="#27CDB2"/>
<path d="M16.036 30.752H20.056V32.048H16.036V30.752ZM10.888 34.448H21.148V35.756H10.888V34.448ZM15.304 28.268H16.84V35.24H15.304V28.268ZM12.196 30.26H13.612V35.12H12.196V30.26ZM15.784 24.704L17.092 25.328C15.652 27.38 13.468 28.988 11.2 30.008C10.984 29.636 10.576 29.12 10.216 28.772C12.376 27.956 14.584 26.504 15.784 24.704ZM16.66 25.52C18.28 27.272 20.044 28.136 21.808 28.748C21.46 29.06 21.064 29.564 20.884 29.996C19.06 29.216 17.32 28.22 15.484 26.084L16.66 25.52ZM22.6027 34.088H33.4027V35.516H22.6027V34.088ZM25.7107 24.968H27.1987V34.628H25.7107V24.968ZM28.7827 24.956H30.2587V34.712H28.7827V24.956ZM31.9867 27.368L33.2947 27.992C32.7547 29.516 31.9987 31.22 31.3627 32.384L30.1747 31.772C30.7987 30.644 31.5667 28.832 31.9867 27.368ZM22.7587 27.74L24.0787 27.344C24.6307 28.76 25.3267 30.644 25.6387 31.796L24.1987 32.312C23.9347 31.16 23.2987 29.204 22.7587 27.74Z" fill="white"/>
<path fill-rule="evenodd" clip-rule="evenodd" d="M19.6665 8.6665L28.6665 11.9998V18.6665H19.6665V8.6665Z" stroke="white" stroke-width="1.33333" stroke-linecap="round" stroke-linejoin="round"/>
<path d="M19.6668 8.6665L15.3335 11.9998V18.6665H19.6668" stroke="white" stroke-width="1.33333" stroke-linecap="round" stroke-linejoin="round"/>
<path d="M25.6665 18.6665V14.6665L22.6665 13.6665V18.6665" stroke="white" stroke-width="1.33333" stroke-linecap="round" stroke-linejoin="round"/>
<path d="M28.6665 18.6665H19.6665" stroke="white" stroke-width="1.33333" stroke-linecap="round" stroke-linejoin="round"/>
</svg>
